User Type,Username,Date,Text
,stukaville,2007-11-12T17:26Z,"Thankyou for this torrent, ive not seen this film for years, its an absolute masterpriece with brilliant acting"
,fullmetaljacket765,2008-01-24T06:51Z,how is the quality on this one??
,prasnto,2008-03-26T19:53Z,"Let's see how this stacks up to the remake...

It's interesting that Michael Caine plays the opposite character in this one as opposed to the one he plays in the remake..."
,MrSmartyPants,2009-05-24T08:36Z,Remake  s u c k s. THIS is a masterpiece. Olivier in all his Olivier-ish glory. Must see.
,Nop666,2009-05-25T18:41Z,"The original version (1972) is *way* better than the remake (2007). 
Reviews:
1972: http://www.reelviews.net/php_review_template.php?identifier=705
2007: http://www.reelviews.net/php_review_template.php?identifier=531
I haven't D/Led this rip yet, so I can't comment on the quality of it.
Thanks for putting it up, WeeKnighT!"
,TechnoMax,2010-10-31T17:42Z,thanks for sharing WeeKnighT :)
,Scandale,2010-12-18T16:35Z,"General
Format                           : AVI
Format/Info                      : Audio Video Interleave
File size                        : 703 MiB
Duration                         : 2h 18mn
Overall bit rate                 : 711 Kbps
Writing application              : VirtualDubMod 1.5.10.2 (build 2540/release)
Writing library                  : VirtualDubMod build 2540/release

Video
ID                               : 0
Format                           : MPEG-4 Visual
Format profile                   : Advanced Simple@L5
Format settings, BVOP            : Yes
Format settings, QPel            : No
Format settings, GMC             : No warppoints
Format settings, Matrix          : Default (H.263)
Muxing mode                      : Packed bitstream
Codec ID                         : XVID
Codec ID/Hint                    : XviD
Duration                         : 2h 18mn
Bit rate                         : 642 Kbps
Width                            : 544 pixels
Height                           : 288 pixels
Display aspect ratio             : 1.889
Frame rate                       : 23.976 fps
Color space                      : YUV
Chroma subsampling               : 4:2:0
Bit depth                        : 8 bits
Scan type                        : Progressive
Bits/(Pixel*Frame)               : 0.171
Stream size                      : 635 MiB (90%)
Writing library                  : XviD 1.1.2 (UTC 2006-11-01)

Audio
ID                               : 1
Format                           : MPEG Audio
Format version                   : Version 1
Format profile                   : Layer 3
Mode                             : Joint stereo
Mode extension                   : MS Stereo
Codec ID                         : 55
Codec ID/Hint                    : MP3
Duration                         : 2h 18mn
Bit rate mode                    : Variable
Bit rate                         : 56.0 Kbps
Channel(s)                       : 2 channels
Sampling rate                    : 48.0 KHz
Stream size                      : 55.8 MiB (8%)
Alignment                        : Aligned on interleaves
Interleave, duration             : 24 ms (0.58 video frame)
Interleave, preload duration     : 285 ms
Writing library                  : LAME3.97"
,sw1abr,2011-12-10T00:54Z,awesome thanks
,sw1abr,2011-12-10T00:54Z,reelviews.net ?
